<?xml version="1.0" encoding="UTF-8" standalone="no"?>
<!DOCTYPE svg PUBLIC "-//W3C//DTD SVG 1.1//EN" "http://www.w3.org/Graphics/SVG/1.1/DTD/svg11.dtd">
<svg width="100%" height="100%" viewBox="0 0 823 142" version="1.1" xmlns="http://www.w3.org/2000/svg" xmlns:xlink="http://www.w3.org/1999/xlink" xml:space="preserve" xmlns:serif="http://www.serif.com/" style="fill-rule:evenodd;clip-rule:evenodd;stroke-linejoin:round;stroke-miterlimit:1;">
    <g id="Layer-1" serif:id="Layer 1" transform="matrix(0.8,0,0,0.8,-6.035428,8.500263)">
        <g id="g3345" transform="matrix(6.193329,0,0,6.193329,-627.55266,-409.63232)">
            <rect id="rect4761" x="105.665" y="71.942" width="17.567" height="18.356" style="fill:none;stroke:white;stroke-width:1.72px;"/>
            <path id="path4833" d="M109.253,80.152C109.253,80.152 112.753,86.008 114.417,85.874C117.029,85.662 124.626,67.414 124.626,67.414" style="fill:none;stroke:white;stroke-width:2.29px;stroke-linecap:round;stroke-linejoin:miter;stroke-miterlimit:4;"/>
        </g>
        <g id="flowRoot3344" transform="matrix(1,0,0,1,16.528534,-61.840449)">
            <path id="path827" d="M192.562,93.451L209.206,93.451L209.206,143.878L269.686,143.878L269.686,93.451L286.33,93.451L286.33,216.47L269.686,216.47L269.686,157.886L209.206,157.886L209.206,216.47L192.562,216.47L192.562,93.451Z" style="fill:white;fill-rule:nonzero;"/>
            <path id="path829" d="M397.732,166.537L397.732,173.953L328.023,173.953C328.682,184.39 331.814,192.355 337.417,197.848C343.075,203.287 350.93,206.006 360.982,206.006C366.805,206.006 372.436,205.292 377.874,203.863C383.367,202.435 388.805,200.293 394.188,197.436L394.188,211.774C388.75,214.081 383.175,215.839 377.462,217.047C371.749,218.255 365.954,218.86 360.076,218.86C345.354,218.86 333.681,214.575 325.057,206.006C316.488,197.436 312.203,185.846 312.203,171.234C312.203,156.128 316.268,144.153 324.398,135.309C332.583,126.41 343.596,121.96 357.439,121.96C369.854,121.96 379.659,125.97 386.855,133.99C394.106,141.955 397.732,152.804 397.732,166.537ZM382.57,162.088C382.461,153.793 380.126,147.174 375.567,142.23C371.062,137.286 365.075,134.814 357.604,134.814C349.145,134.814 342.36,137.204 337.252,141.983C332.198,146.762 329.287,153.491 328.518,162.17L382.57,162.088Z" style="fill:white;fill-rule:nonzero;"/>
            <rect id="path831" x="422.616" y="88.26" width="15.161" height="128.21" style="fill:white;fill-rule:nonzero;"/>
            <path id="path833" d="M516.137,88.26L516.137,100.867L501.635,100.867C496.197,100.867 492.406,101.965 490.264,104.162C488.177,106.36 487.133,110.315 487.133,116.028L487.133,124.185L512.099,124.185L512.099,135.968L487.133,135.968L487.133,216.47L471.889,216.47L471.889,135.968L457.387,135.968L457.387,124.185L471.889,124.185L471.889,117.758C471.889,107.486 474.279,100.015 479.058,95.346C483.837,90.622 491.417,88.26 501.8,88.26L516.137,88.26Z" style="fill:white;fill-rule:nonzero;"/>
            <path id="path835" d="M607.68,166.537L607.68,173.953L537.972,173.953C538.631,184.39 541.762,192.355 547.365,197.848C553.023,203.287 560.879,206.006 570.931,206.006C576.754,206.006 582.384,205.292 587.823,203.863C593.316,202.435 598.754,200.293 604.137,197.436L604.137,211.774C598.699,214.081 593.123,215.839 587.411,217.047C581.698,218.255 575.902,218.86 570.025,218.86C555.303,218.86 543.63,214.575 535.006,206.006C526.436,197.436 522.152,185.846 522.152,171.234C522.152,156.128 526.217,144.153 534.347,135.309C542.531,126.41 553.545,121.96 567.388,121.96C579.802,121.96 589.608,125.97 596.804,133.99C604.055,141.955 607.68,152.804 607.68,166.537ZM592.519,162.088C592.409,153.793 590.075,147.174 585.515,142.23C581.011,137.286 575.023,134.814 567.553,134.814C559.093,134.814 552.309,137.204 547.201,141.983C542.147,146.762 539.235,153.491 538.466,162.17L592.519,162.088Z" style="fill:white;fill-rule:nonzero;"/>
            <path id="path837" d="M686.04,138.357C684.337,137.369 682.47,136.655 680.437,136.215C678.46,135.721 676.262,135.474 673.845,135.474C665.276,135.474 658.684,138.275 654.07,143.878C649.511,149.426 647.231,157.419 647.231,167.856L647.231,216.47L631.988,216.47L631.988,124.185L647.231,124.185L647.231,138.522C650.417,132.919 654.564,128.772 659.673,126.08C664.782,123.334 670.989,121.96 678.295,121.96C679.339,121.96 680.492,122.043 681.756,122.208C683.019,122.317 684.42,122.51 685.958,122.784L686.04,138.357Z" style="fill:white;fill-rule:nonzero;"/>
            <path id="path839" d="M717.104,97.983L717.104,124.185L748.333,124.185L748.333,135.968L717.104,135.968L717.104,186.066C717.104,193.591 718.12,198.425 720.153,200.567C722.24,202.71 726.443,203.781 732.76,203.781L748.333,203.781L748.333,216.47L732.76,216.47C721.059,216.47 712.984,214.3 708.535,209.961C704.085,205.566 701.861,197.601 701.861,186.066L701.861,135.968L690.737,135.968L690.737,124.185L701.861,124.185L701.861,97.983L717.104,97.983Z" style="fill:white;fill-rule:nonzero;"/>
            <path id="path841" d="M804.116,134.814C795.986,134.814 789.559,138 784.835,144.372C780.111,150.69 777.749,159.369 777.749,170.41C777.749,181.451 780.083,190.158 784.752,196.53C789.477,202.847 795.931,206.006 804.116,206.006C812.191,206.006 818.59,202.82 823.314,196.448C828.039,190.076 830.401,181.396 830.401,170.41C830.401,159.479 828.039,150.827 823.314,144.455C818.59,138.028 812.191,134.814 804.116,134.814ZM804.116,121.96C817.299,121.96 827.654,126.245 835.18,134.814C842.705,143.384 846.468,155.249 846.468,170.41C846.468,185.516 842.705,197.381 835.18,206.006C827.654,214.575 817.299,218.86 804.116,218.86C790.877,218.86 780.495,214.575 772.97,206.006C765.499,197.381 761.764,185.516 761.764,170.41C761.764,155.249 765.499,143.384 772.97,134.814C780.495,126.245 790.877,121.96 804.116,121.96Z" style="fill:white;fill-rule:nonzero;"/>
            <path id="path843" d="M907.277,134.814C899.148,134.814 892.721,138 887.996,144.372C883.272,150.69 880.91,159.369 880.91,170.41C880.91,181.451 883.245,190.158 887.914,196.53C892.638,202.847 899.093,206.006 907.277,206.006C915.352,206.006 921.752,202.82 926.476,196.448C931.2,190.076 933.562,181.396 933.562,170.41C933.562,159.479 931.2,150.827 926.476,144.455C921.752,138.028 915.352,134.814 907.277,134.814ZM907.277,121.96C920.461,121.96 930.816,126.245 938.341,134.814C945.867,143.384 949.63,155.249 949.63,170.41C949.63,185.516 945.867,197.381 938.341,206.006C930.816,214.575 920.461,218.86 907.277,218.86C894.039,218.86 883.657,214.575 876.131,206.006C868.661,197.381 864.925,185.516 864.925,170.41C864.925,155.249 868.661,143.384 876.131,134.814C883.657,126.245 894.039,121.96 907.277,121.96Z" style="fill:white;fill-rule:nonzero;"/>
            <rect id="path845" x="974.679" y="88.26" width="15.161" height="128.21" style="fill:white;fill-rule:nonzero;"/>
        </g>
    </g>
</svg>
